<svg xmlns="http://www.w3.org/2000/svg" width="1200" height="700" viewBox="0 0 1200 700"><defs><linearGradient id="bgGradient" x1="0%" y1="0%" x2="100%" y2="100%"><stop offset="0%" style="stop-color:#1e3a5f" /><stop offset="100%" style="stop-color:#0f172a" /></linearGradient><filter id="glow" x="-50%" y="-50%" width="200%" height="200%"><feGaussianBlur stdDeviation="3" result="coloredBlur" /><feMerge><feMergeNode in="coloredBlur" /><feMergeNode in="SourceGraphic" /></feMerge></filter><filter id="shadow" x="-20%" y="-20%" width="140%" height="140%"><feDropShadow dx="0" dy="4" stdDeviation="8" flood-color="#000000" flood-opacity="0.3" /></filter><linearGradient id="nodeGradient" x1="0%" y1="0%" x2="0%" y2="100%"><stop offset="0%" style="stop-color:#1e293b" /><stop offset="100%" style="stop-color:#0f172a" /></linearGradient><pattern id="grid" width="40" height="40" patternUnits="userSpaceOnUse"><path d="M 40 0 L 0 0 0 40" fill="none" stroke="#1e293b" stroke-width="1" /></pattern></defs><rect width="1200" height="700" fill="url(#bgGradient)" /><rect width="1200" height="700" fill="url(#grid)" opacity="0.3" /><text x="140" y="60" text-anchor="middle" fill="#38bdf8" font-family="system-ui" font-size="16" font-weight="bold">INPUT</text><circle cx="70" cy="120" r="20" fill="#38bdf8" opacity="0.2" /><text x="70" y="128" text-anchor="middle" font-size="20">📁</text><rect x="95" y="100" width="135" height="70" rx="12" ry="12" fill="url(#nodeGradient)" stroke="#38bdf8" stroke-width="2" filter="url(#shadow)" /><text x="162" y="140" text-anchor="middle" fill="#f8fafc" font-family="system-ui, -apple-system, sans-serif" font-size="14" font-weight="600">Project Path</text><line x1="230" y1="135" x2="270" y2="135" stroke="#38bdf8" stroke-width="2" stroke-dasharray="5,3" /><polygon points="270,135 261,140 261,130" fill="#38bdf8" /><text x="360" y="60" text-anchor="middle" fill="#38bdf8" font-family="system-ui" font-size="16" font-weight="bold">ANALYZE</text><circle cx="290" cy="120" r="20" fill="#22d3ee" opacity="0.2" /><text x="290" y="128" text-anchor="middle" font-size="20">🔍</text><rect x="315" y="100" width="135" height="70" rx="12" ry="12" fill="url(#nodeGradient)" stroke="#22d3ee" stroke-width="2" filter="url(#shadow)" /><text x="382" y="140" text-anchor="middle" fill="#f8fafc" font-family="system-ui, -apple-system, sans-serif" font-size="14" font-weight="600">Metadata Extract</text><line x1="450" y1="135" x2="490" y2="135" stroke="#38bdf8" stroke-width="2" stroke-dasharray="5,3" /><polygon points="490,135 481,140 481,130" fill="#38bdf8" /><text x="580" y="60" text-anchor="middle" fill="#38bdf8" font-family="system-ui" font-size="16" font-weight="bold">GENERATE</text><circle cx="510" cy="120" r="20" fill="#a78bfa" opacity="0.2" /><text x="510" y="128" text-anchor="middle" font-size="20">⚡</text><rect x="535" y="100" width="135" height="70" rx="12" ry="12" fill="url(#nodeGradient)" stroke="#a78bfa" stroke-width="2" filter="url(#shadow)" /><text x="602" y="140" text-anchor="middle" fill="#f8fafc" font-family="system-ui, -apple-system, sans-serif" font-size="14" font-weight="600">Create Assets</text><line x1="670" y1="135" x2="710" y2="135" stroke="#38bdf8" stroke-width="2" stroke-dasharray="5,3" /><polygon points="710,135 701,140 701,130" fill="#38bdf8" /><text x="800" y="60" text-anchor="middle" fill="#38bdf8" font-family="system-ui" font-size="16" font-weight="bold">VALIDATE</text><circle cx="730" cy="120" r="20" fill="#f472b6" opacity="0.2" /><text x="730" y="128" text-anchor="middle" font-size="20">🧪</text><rect x="755" y="100" width="135" height="70" rx="12" ry="12" fill="url(#nodeGradient)" stroke="#f472b6" stroke-width="2" filter="url(#shadow)" /><text x="822" y="140" text-anchor="middle" fill="#f8fafc" font-family="system-ui, -apple-system, sans-serif" font-size="14" font-weight="600">test.py</text><line x1="890" y1="135" x2="930" y2="135" stroke="#38bdf8" stroke-width="2" stroke-dasharray="5,3" /><polygon points="930,135 921,140 921,130" fill="#38bdf8" /><text x="1020" y="60" text-anchor="middle" fill="#38bdf8" font-family="system-ui" font-size="16" font-weight="bold">OUTPUT</text><circle cx="950" cy="120" r="20" fill="#22c55e" opacity="0.2" /><text x="950" y="128" text-anchor="middle" font-size="20">✨</text><rect x="975" y="100" width="135" height="70" rx="12" ry="12" fill="url(#nodeGradient)" stroke="#22c55e" stroke-width="2" filter="url(#shadow)" /><text x="1042" y="140" text-anchor="middle" fill="#f8fafc" font-family="system-ui, -apple-system, sans-serif" font-size="14" font-weight="600">Premium README</text><text x="600" y="30" text-anchor="middle" fill="#f8fafc" font-family="system-ui" font-size="24" font-weight="bold">Architecture Pipeline</text></svg>