<svg xmlns="http://www.w3.org/2000/svg" width="1200" height="600" viewBox="0 0 1200 600"><defs><linearGradient id="bgGradient" x1="0%" y1="0%" x2="100%" y2="100%"><stop offset="0%" style="stop-color:#1e3a5f" /><stop offset="100%" style="stop-color:#0f172a" /></linearGradient><filter id="glow" x="-50%" y="-50%" width="200%" height="200%"><feGaussianBlur stdDeviation="3" result="coloredBlur" /><feMerge><feMergeNode in="coloredBlur" /><feMergeNode in="SourceGraphic" /></feMerge></filter><filter id="shadow" x="-20%" y="-20%" width="140%" height="140%"><feDropShadow dx="0" dy="4" stdDeviation="8" flood-color="#000000" flood-opacity="0.3" /></filter><linearGradient id="nodeGradient" x1="0%" y1="0%" x2="0%" y2="100%"><stop offset="0%" style="stop-color:#1e293b" /><stop offset="100%" style="stop-color:#0f172a" /></linearGradient><pattern id="grid" width="40" height="40" patternUnits="userSpaceOnUse"><path d="M 40 0 L 0 0 0 40" fill="none" stroke="#1e293b" stroke-width="1" /></pattern></defs><rect width="1200" height="600" fill="url(#bgGradient)" /><rect width="1200" height="600" fill="url(#grid)" opacity="0.3" /><text x="30" y="95" text-anchor="start" fill="#94a3b8" font-family="system-ui" font-size="12" font-weight="bold" text-transform="uppercase" letter-spacing="2">Frontend</text><rect x="60" y="50" width="200" height="80" rx="8" ry="8" fill="#38bdf8" opacity="0.15" stroke="#38bdf8" stroke-width="2" /><text x="160" y="95" text-anchor="middle" fill="#f8fafc" font-family="system-ui" font-size="14" font-weight="600">Python 3.10+</text><line x1="20" y1="50" x2="1180" y2="50" stroke="#334155" stroke-width="1" stroke-dasharray="4,4" /><text x="30" y="225" text-anchor="start" fill="#94a3b8" font-family="system-ui" font-size="12" font-weight="bold" text-transform="uppercase" letter-spacing="2">Services</text><rect x="60" y="180" width="200" height="80" rx="8" ry="8" fill="#22d3ee" opacity="0.15" stroke="#22d3ee" stroke-width="2" /><text x="160" y="225" text-anchor="middle" fill="#f8fafc" font-family="system-ui" font-size="14" font-weight="600">Standard Library</text><rect x="290" y="180" width="200" height="80" rx="8" ry="8" fill="#a78bfa" opacity="0.15" stroke="#a78bfa" stroke-width="2" /><text x="390" y="225" text-anchor="middle" fill="#f8fafc" font-family="system-ui" font-size="14" font-weight="600">Shields.io API</text><line x1="20" y1="180" x2="1180" y2="180" stroke="#334155" stroke-width="1" stroke-dasharray="4,4" /><text x="30" y="355" text-anchor="start" fill="#94a3b8" font-family="system-ui" font-size="12" font-weight="bold" text-transform="uppercase" letter-spacing="2">Output</text><rect x="60" y="310" width="200" height="80" rx="8" ry="8" fill="#f472b6" opacity="0.15" stroke="#f472b6" stroke-width="2" /><text x="160" y="355" text-anchor="middle" fill="#f8fafc" font-family="system-ui" font-size="14" font-weight="600">SVG Banners</text><rect x="290" y="310" width="200" height="80" rx="8" ry="8" fill="#22c55e" opacity="0.15" stroke="#22c55e" stroke-width="2" /><text x="390" y="355" text-anchor="middle" fill="#f8fafc" font-family="system-ui" font-size="14" font-weight="600">Mermaid Diagrams</text><line x1="20" y1="310" x2="1180" y2="310" stroke="#334155" stroke-width="1" stroke-dasharray="4,4" /><text x="30" y="485" text-anchor="start" fill="#94a3b8" font-family="system-ui" font-size="12" font-weight="bold" text-transform="uppercase" letter-spacing="2">VCS</text><rect x="60" y="440" width="200" height="80" rx="8" ry="8" fill="#f97316" opacity="0.15" stroke="#f97316" stroke-width="2" /><text x="160" y="485" text-anchor="middle" fill="#f8fafc" font-family="system-ui" font-size="14" font-weight="600">Git</text><line x1="20" y1="440" x2="1180" y2="440" stroke="#334155" stroke-width="1" stroke-dasharray="4,4" /><line x1="200" y1="180" x2="200" y2="230" stroke="#38bdf8" stroke-width="2" stroke-dasharray="5,3" /><polygon points="200,230 195,221 205,221" fill="#38bdf8" /><line x1="430" y1="180" x2="430" y2="230" stroke="#38bdf8" stroke-width="2" stroke-dasharray="5,3" /><polygon points="430,230 425,221 435,221" fill="#38bdf8" /><line x1="660" y1="180" x2="660" y2="230" stroke="#38bdf8" stroke-width="2" stroke-dasharray="5,3" /><polygon points="660,230 655,221 665,221" fill="#38bdf8" /><line x1="200" y1="310" x2="200" y2="360" stroke="#38bdf8" stroke-width="2" stroke-dasharray="5,3" /><polygon points="200,360 195,351 205,351" fill="#38bdf8" /><line x1="430" y1="310" x2="430" y2="360" stroke="#38bdf8" stroke-width="2" stroke-dasharray="5,3" /><polygon points="430,360 425,351 435,351" fill="#38bdf8" /><line x1="660" y1="310" x2="660" y2="360" stroke="#38bdf8" stroke-width="2" stroke-dasharray="5,3" /><polygon points="660,360 655,351 665,351" fill="#38bdf8" /><line x1="200" y1="440" x2="200" y2="490" stroke="#38bdf8" stroke-width="2" stroke-dasharray="5,3" /><polygon points="200,490 195,481 205,481" fill="#38bdf8" /><line x1="430" y1="440" x2="430" y2="490" stroke="#38bdf8" stroke-width="2" stroke-dasharray="5,3" /><polygon points="430,490 425,481 435,481" fill="#38bdf8" /><line x1="660" y1="440" x2="660" y2="490" stroke="#38bdf8" stroke-width="2" stroke-dasharray="5,3" /><polygon points="660,490 655,481 665,481" fill="#38bdf8" /><text x="600" y="30" text-anchor="middle" fill="#f8fafc" font-family="system-ui" font-size="20" font-weight="bold">Tech Stack</text></svg>