<svg xmlns="http://www.w3.org/2000/svg" width="1000" height="400" viewBox="0 0 1000 400"><defs><linearGradient id="bgGradient" x1="0%" y1="0%" x2="100%" y2="100%"><stop offset="0%" style="stop-color:#1e3a5f" /><stop offset="100%" style="stop-color:#0f172a" /></linearGradient><filter id="glow" x="-50%" y="-50%" width="200%" height="200%"><feGaussianBlur stdDeviation="3" result="coloredBlur" /><feMerge><feMergeNode in="coloredBlur" /><feMergeNode in="SourceGraphic" /></feMerge></filter><filter id="shadow" x="-20%" y="-20%" width="140%" height="140%"><feDropShadow dx="0" dy="4" stdDeviation="8" flood-color="#000000" flood-opacity="0.3" /></filter><linearGradient id="nodeGradient" x1="0%" y1="0%" x2="0%" y2="100%"><stop offset="0%" style="stop-color:#1e293b" /><stop offset="100%" style="stop-color:#0f172a" /></linearGradient><pattern id="grid" width="40" height="40" patternUnits="userSpaceOnUse"><path d="M 40 0 L 0 0 0 40" fill="none" stroke="#1e293b" stroke-width="1" /></pattern></defs><rect width="1000" height="400" fill="url(#bgGradient)" /><rect width="1000" height="400" fill="url(#grid)" opacity="0.3" /><circle cx="80" cy="130" r="30" fill="#38bdf8" opacity="0.2" stroke="#38bdf8" stroke-width="2" /><text x="80" y="138" text-anchor="middle" fill="#38bdf8" font-family="system-ui" font-size="20" font-weight="bold">1</text><text x="80" y="185" text-anchor="middle" fill="#f8fafc" font-family="system-ui" font-size="12" font-weight="500">Analyze</text><line x1="110" y1="130" x2="150" y2="130" stroke="#38bdf8" stroke-width="2" stroke-dasharray="5,3" /><polygon points="150,130 141,135 141,125" fill="#38bdf8" /><circle cx="180" cy="130" r="30" fill="#38bdf8" opacity="0.2" stroke="#38bdf8" stroke-width="2" /><text x="180" y="138" text-anchor="middle" fill="#38bdf8" font-family="system-ui" font-size="20" font-weight="bold">2</text><text x="180" y="185" text-anchor="middle" fill="#f8fafc" font-family="system-ui" font-size="12" font-weight="500">Generate</text><line x1="210" y1="130" x2="250" y2="130" stroke="#38bdf8" stroke-width="2" stroke-dasharray="5,3" /><polygon points="250,130 241,135 241,125" fill="#38bdf8" /><circle cx="280" cy="130" r="30" fill="#38bdf8" opacity="0.2" stroke="#38bdf8" stroke-width="2" /><text x="280" y="138" text-anchor="middle" fill="#38bdf8" font-family="system-ui" font-size="20" font-weight="bold">3</text><text x="280" y="185" text-anchor="middle" fill="#f8fafc" font-family="system-ui" font-size="12" font-weight="500">Validate</text><line x1="310" y1="130" x2="350" y2="130" stroke="#38bdf8" stroke-width="2" stroke-dasharray="5,3" /><polygon points="350,130 341,135 341,125" fill="#38bdf8" /><circle cx="380" cy="130" r="30" fill="#38bdf8" opacity="0.2" stroke="#38bdf8" stroke-width="2" /><text x="380" y="138" text-anchor="middle" fill="#38bdf8" font-family="system-ui" font-size="20" font-weight="bold">4</text><text x="380" y="185" text-anchor="middle" fill="#f8fafc" font-family="system-ui" font-size="12" font-weight="500">Deliver</text><text x="500" y="40" text-anchor="middle" fill="#f8fafc" font-family="system-ui" font-size="20" font-weight="bold">Workflow</text></svg>